<?xml version="1.0" standalone="no"?><!DOCTYPE svg PUBLIC "-//W3C//DTD SVG 1.1//EN" "http://www.w3.org/Graphics/SVG/1.1/DTD/svg11.dtd"><svg width="100%" height="100%" viewBox="0 0 540 497" version="1.1" xmlns="http://www.w3.org/2000/svg" xmlns:xlink="http://www.w3.org/1999/xlink" xml:space="preserve" style="fill-rule:evenodd;clip-rule:evenodd;stroke-linejoin:round;stroke-miterlimit:1.41421;"><path id="path2182" d="M420.607,411.771c-1.068,-2.578 -11.046,-8.384 -13.367,-7.779c-0.659,0.172 -3.495,-0.222 -6.301,-0.876c-4.321,-1.007 -5.935,-1.1 -10.554,-0.606c-5.273,0.563 -5.578,0.525 -9.249,-1.159c-2.088,-0.958 -3.803,-2.067 -3.81,-2.464c-0.007,-0.398 -0.819,-0.901 -1.804,-1.117c-1.036,-0.228 -1.922,-0.896 -2.103,-1.586c-0.171,-0.656 -0.975,-1.446 -1.787,-1.754c-0.811,-0.308 -1.847,-1.009 -2.302,-1.558c-0.455,-0.548 -1.903,-1.601 -3.218,-2.34c-1.315,-0.739 -2.391,-1.523 -2.391,-1.742c0,-0.22 -2.12,-2.045 -4.711,-4.057c-5.61,-4.356 -16.476,-13.198 -16.913,-13.762c-0.17,-0.219 -3.437,-3.279 -7.259,-6.8c-3.823,-3.521 -6.951,-6.813 -6.951,-7.316c0,-0.503 1.436,-2.844 3.19,-5.204c2.62,-3.522 4.47,-5.137 10.349,-9.03c3.937,-2.608 8.352,-5.65 9.811,-6.76c1.46,-1.11 4.752,-3.014 7.316,-4.231c5.118,-2.429 7.929,-4.291 17.293,-11.454c3.441,-2.632 7.472,-5.548 8.958,-6.48c3.434,-2.153 22.453,-21.245 27.659,-27.764c2.17,-2.719 4.602,-5.509 5.403,-6.201c0.802,-0.693 2.083,-2.431 2.848,-3.863c4.381,-8.205 7.932,-14.234 8.814,-14.967c0.554,-0.459 1.597,-1.966 2.319,-3.347c0.977,-1.873 1.373,-2.229 1.551,-1.398c0.403,1.878 1.427,0.871 3.04,-2.99c0.847,-2.027 2.058,-4.247 2.69,-4.934c1.485,-1.61 5.863,-14.176 7.007,-20.107c0.488,-2.526 1.325,-5.427 1.862,-6.446c0.536,-1.019 1.139,-2.827 1.339,-4.016c0.446,-2.653 2.113,-8.117 2.733,-8.958c1.143,-1.55 4.554,-16.392 5.564,-24.214c0.316,-2.445 1.121,-5.642 1.789,-7.105c0.668,-1.464 1.494,-3.634 1.835,-4.823c0.341,-1.19 1.585,-4.989 2.763,-8.444c2.901,-8.501 3.967,-17.733 2.979,-25.777c-0.983,-7.995 -0.963,-8.76 0.206,-7.791c0.509,0.423 0.926,1.136 0.926,1.584c0,0.448 0.322,1.013 0.715,1.256c1.278,0.79 0.011,-6.341 -2.025,-11.399c-1.606,-3.988 -1.953,-5.81 -2.228,-11.701c-0.255,-5.453 -0.155,-6.937 0.459,-6.796c1.045,0.241 2.576,-5.421 2.146,-7.933c-0.226,-1.321 -0.06,-2.041 0.522,-2.264c1.377,-0.528 1.761,-4.896 0.698,-7.934l-0.943,-2.694l1.589,1.699c2.185,2.337 3.004,2.188 2.508,-0.454c-0.576,-3.071 1.409,-6.566 3.43,-6.038c0.753,0.197 1.154,-0.253 1.458,-1.638c0.29,-1.32 0.783,-1.909 1.598,-1.909c1.578,0 3.637,-1.827 3.236,-2.871c-0.206,-0.538 0.138,-0.836 0.966,-0.836c1.075,0 1.23,-0.28 0.944,-1.711c-0.256,-1.28 0.051,-2.135 1.221,-3.398c0.86,-0.928 1.832,-1.687 2.16,-1.687c0.328,0 0.688,-0.242 0.802,-0.539c0.113,-0.296 1.628,-1.256 3.367,-2.131l3.162,-1.593l22.664,-0.1c19.86,-0.087 22.641,-0.215 22.478,-1.034c-0.754,-3.777 -30.512,-13.914 -48.376,-16.479c-3.738,-0.537 -10.794,-1.56 -15.679,-2.272c-4.885,-0.713 -10.109,-1.315 -11.608,-1.338c-1.499,-0.022 -2.856,-0.251 -3.014,-0.508c-1.419,-2.296 33.707,-16.288 47.908,-19.084c8.679,-1.708 23.623,-3.088 26.477,-2.444c3.044,0.686 3.573,-0.104 1.621,-2.423c-3.52,-4.184 -16.156,-8.345 -27.347,-9.006c-23.812,-1.406 -35.991,-1.424 -46.778,-0.068c-8.972,1.127 -9.629,1.039 -12.68,-1.701c-2.174,-1.953 -3.021,-2.326 -5.155,-2.268c-1.404,0.038 -4.621,-0.205 -7.149,-0.539c-6.228,-0.824 -23.281,0.143 -31.188,1.769c-11.634,2.393 -22.138,6.527 -28.777,11.326c-2.209,1.597 -5.008,3.56 -6.221,4.363c-1.212,0.803 -2.717,2.244 -3.345,3.201c-0.628,0.958 -2.763,3.719 -4.746,6.134c-1.983,2.416 -3.605,4.655 -3.605,4.975c0,0.32 -0.654,1.55 -1.453,2.733c-0.799,1.183 -1.808,3.263 -2.242,4.622c-0.435,1.36 -1.557,4.001 -2.495,5.87c-0.937,1.869 -2.122,4.232 -2.632,5.251c-1.509,3.013 -2.651,5.911 -4.139,10.503c-0.771,2.379 -2.476,6.175 -3.79,8.437c-3.231,5.564 -3.819,7.133 -3.947,10.533c-0.061,1.599 -0.458,3.326 -0.883,3.838c-0.426,0.513 -0.883,2.124 -1.017,3.58c-0.147,1.596 -0.65,2.895 -1.265,3.267c-0.561,0.34 -2.303,1.519 -3.87,2.619c-1.567,1.101 -4.1,2.709 -5.629,3.574c-1.529,0.865 -3.796,2.327 -5.037,3.25c-9.994,7.43 -15.031,11.462 -18.749,15.009c-2.379,2.269 -6.31,5.48 -8.737,7.136c-6.181,4.216 -15.819,12.864 -20.239,18.161c-0.986,1.181 -3.2,4.094 -4.92,6.472c-1.719,2.379 -4.539,6.132 -6.266,8.341c-1.727,2.208 -3.857,5.128 -4.734,6.487c-0.877,1.359 -2.949,4.556 -4.605,7.105c-1.657,2.548 -3.124,4.911 -3.261,5.251c-0.136,0.34 -2.101,3.537 -4.366,7.105c-2.265,3.568 -4.96,8.016 -5.989,9.885c-8.076,14.671 -9.714,16.855 -16.854,22.482c-4.834,3.809 -5.721,4.382 -12.101,7.831c-4.532,2.449 -8.65,5.101 -12.169,7.834c-1.866,1.451 -8.316,7.992 -14.364,14.569c-2.71,2.947 -5.252,5.359 -5.649,5.359c-0.396,0 -3.358,2.571 -6.582,5.714c-3.224,3.144 -6.66,6.31 -7.635,7.038c-0.975,0.727 -2.668,3.09 -3.761,5.251c-2.523,4.985 -6.124,9.307 -11.582,13.9c-2.367,1.992 -5.147,4.569 -6.178,5.726c-1.949,2.188 -3.942,4.189 -5.369,5.391c-5.598,4.712 -18.286,20.836 -22.542,28.646c-0.649,1.19 -1.7,2.941 -2.337,3.893c-1.849,2.765 -0.505,3.448 3.51,1.784c3.501,-1.451 5.401,-1.716 5.401,-0.753c0,0.329 -0.595,1.65 -1.323,2.935c-3.531,6.23 -4.237,7.933 -4.237,10.222c0,2.06 0.394,2.822 2.471,4.778c1.359,1.281 2.463,2.569 2.452,2.863c-0.011,0.294 -1.888,1.843 -4.17,3.442c-6.988,4.892 -9.563,7.159 -14.799,13.027c-1.202,1.346 -2.962,2.499 -4.413,2.889c-1.607,0.433 -3.108,1.491 -4.488,3.164c-1.141,1.383 -3.008,3.396 -4.149,4.474c-5.796,5.475 -7.25,6.768 -8.998,7.999c-1.046,0.736 -3.848,2.9 -6.226,4.808c-2.379,1.909 -5.576,4.203 -7.105,5.1c-1.529,0.896 -3.647,2.45 -4.707,3.453c-1.059,1.003 -3.84,3.083 -6.178,4.623c-2.338,1.539 -5.503,3.652 -7.032,4.694c-3.759,2.564 -6.029,4.026 -13.283,8.558c-7.268,4.541 -12.269,9.071 -11.838,10.722c0.214,0.819 -0.064,1.126 -1.039,1.147c-1.028,0.022 -1.835,1.047 -3.528,4.479c-1.678,3.401 -2.698,4.703 -4.325,5.521c-2.719,1.368 -9.275,8.509 -11.496,12.521c-0.972,1.756 -1.747,4.156 -1.795,5.561c-0.047,1.359 -0.298,3.361 -0.557,4.449c-0.798,3.349 1.356,3.244 8.939,-0.437c14.441,-7.01 19.963,-9.129 15.908,-6.103c-0.934,0.697 -1.699,1.555 -1.699,1.907c0,0.972 -4.293,7.926 -6.44,10.432c-4.705,5.491 -8.387,10.663 -8.387,11.782c0,0.67 -0.29,1.761 -0.645,2.423c-0.492,0.921 -0.432,1.286 0.257,1.55c0.55,0.211 3.682,-1.9 8.032,-5.415c8.799,-7.108 15.646,-12.432 20.005,-15.554c3.157,-2.261 3.364,-2.323 4.164,-1.236c0.808,1.097 1.156,1.037 8.455,-1.456c9.989,-3.411 23.658,-8.374 26.765,-9.717c1.359,-0.587 5.112,-1.987 8.34,-3.111c3.228,-1.124 7.885,-2.878 10.349,-3.897c2.463,-1.02 4.479,-1.6 4.479,-1.289c0,0.715 -2.697,5.103 -12.668,20.614c-1.965,3.058 -4.576,7.144 -5.801,9.078c-1.847,2.918 -2.597,5.603 -4.39,5.915c-4.054,12.413 -4.029,16.05 -12.132,22.906c1.725,7.207 52.612,-25.882 49.724,-25.184c109.827,-8.298 348.169,12.424 307.196,-58.628ZM121.766,459.524c0.445,-1.161 10.223,-14.86 13.793,-19.326c1.615,-2.019 6.003,-5.73 11.443,-9.678c11.003,-7.982 13.321,-9.864 21.882,-17.765l6.881,-6.349l8.828,-1.779c9.482,-1.91 20.697,-5.441 32.088,-10.101c6.558,-2.683 23.354,-10.782 28.419,-13.705c6.634,-3.827 15.385,-7.042 16.773,-6.163c0.654,0.415 0.609,0.531 -0.21,0.539c-0.574,0.005 -1.216,0.287 -1.426,0.627c-0.217,0.35 0.302,0.618 1.199,0.618c0.993,0 1.581,-0.345 1.581,-0.927c0,-1.445 0.962,-1.09 1.754,0.647c0.969,2.125 0.908,3.249 -0.1,1.87c-0.765,-1.047 -0.94,-1.054 -2.75,-0.118c-1.062,0.549 -2.31,0.999 -2.771,0.999c-0.462,0 -1.379,0.398 -2.039,0.885c-0.961,0.709 -1.046,1.041 -0.427,1.668c1.131,1.147 0.944,2.603 -0.446,3.471c-0.71,0.444 -1.07,1.147 -0.863,1.688c0.211,0.549 -0.083,1.095 -0.721,1.34c-1.014,0.389 -1.011,0.463 0.054,1.241c1.016,0.743 1.024,0.828 0.086,0.828c-0.782,0 -1.044,0.543 -1.044,2.162c0,1.835 0.21,2.16 1.39,2.148c1.238,-0.012 6.433,-2.533 10.165,-4.933c0.75,-0.481 1.549,-0.689 1.776,-0.461c0.453,0.452 -1.6,3.198 -5.06,6.768c-1.219,1.258 -2.119,2.578 -2,2.934c0.118,0.355 2.996,-1.015 6.394,-3.046c6.682,-3.993 8.196,-4.522 7.105,-2.483c-0.364,0.679 -1.02,1.235 -1.459,1.235c-1.122,0 -3.704,2.88 -2.982,3.327c0.327,0.202 1.808,-0.725 3.29,-2.06c1.482,-1.336 3.182,-2.862 3.776,-3.392c0.595,-0.53 1.319,-0.964 1.61,-0.964c1.483,0 24.802,27.399 24.802,29.142c0,0.241 -1.321,0.605 -2.935,0.81c-3.436,0.437 -4.545,0.647 -7.877,1.494c-1.359,0.346 -6.641,1.621 -11.738,2.833c-8.782,2.089 -11.957,2.756 -19.153,4.025c-1.699,0.299 -5.174,1.123 -7.722,1.831c-2.549,0.707 -6.024,1.542 -7.723,1.856c-1.699,0.313 -5.869,1.245 -9.267,2.07c-3.398,0.826 -9.237,2.091 -12.974,2.812c-6.866,1.325 -12.159,2.523 -16.681,3.776c-2.73,0.756 -11.068,2.625 -18.226,4.086c-2.548,0.52 -8.943,1.902 -14.21,3.072c-9.991,2.218 -15.888,3.463 -21.623,4.564c-6.493,1.246 -12.062,2.444 -14.519,3.124c-1.359,0.376 -5.095,1.229 -8.302,1.896c-3.207,0.667 -5.964,1.346 -6.127,1.509c-0.727,0.727 -2.05,0.229 -1.714,-0.645ZM315.144,413.974c-5.285,-5.69 -21.854,-28.332 -21.854,-29.864c0,-0.463 0.834,-1.272 1.853,-1.799c1.765,-0.913 1.854,-0.899 1.854,0.293c0,1.973 1.213,1.485 4.18,-1.683c1.512,-1.614 2.44,-2.326 2.063,-1.582c-0.758,1.494 0.047,2.49 1.023,1.266c0.336,-0.421 1.088,-1.704 1.671,-2.852c1.392,-2.738 4.619,-6.254 5.742,-6.254c0.488,0 1.696,-0.865 2.684,-1.922c1.782,-1.909 1.808,-1.915 3.491,-0.829c4.588,2.959 18.775,15.247 27.916,24.178c5.627,5.499 10.464,10.27 10.749,10.603c0.285,0.333 1.189,1.337 2.008,2.232c0.819,0.895 1.49,1.84 1.49,2.1c0,0.673 -19.403,4.609 -23.477,4.763c-7.256,0.273 -15.553,1.426 -16.867,2.344c-1.947,1.36 -2.44,1.251 -4.526,-0.994ZM112.221,321.199c0.027,-0.652 -0.119,-1.017 -0.324,-0.811c-0.206,0.205 -0.228,0.738 -0.049,1.184c0.197,0.493 0.343,0.346 0.373,-0.373Z" style="fill:#000;fill-rule:nonzero;"/></svg>