<?xml version="1.0" standalone="no"?><!DOCTYPE svg PUBLIC "-//W3C//DTD SVG 1.1//EN" "http://www.w3.org/Graphics/SVG/1.1/DTD/svg11.dtd"><svg width="100%" height="100%" viewBox="0 0 8504 5670" version="1.1" xmlns="http://www.w3.org/2000/svg" xmlns:xlink="http://www.w3.org/1999/xlink" xml:space="preserve" style="fill-rule:evenodd;clip-rule:evenodd;stroke-linecap:round;stroke-linejoin:round;stroke-miterlimit:1.41421;"><path id="sable" d="M8503.94,5669.29l0,-5669.29l-8503.94,0l0,5669.29l8503.94,0Z" style="fill:#fffb0a;"/><path id="mer" d="M6318.13,3512.87c87.72,-71.965 197.674,-111.296 311.137,-111.296c503.415,-0.002 1874.67,-0.002 1874.67,-0.002l0,2267.72l-8503.94,0l0,-2267.72c0,0 1371.26,0 1874.67,0c113.463,0 223.417,39.331 311.138,111.296c562.574,461.789 1282.24,739.098 2066.16,739.098c783.921,0 1503.58,-277.309 2066.16,-739.096l0.005,0Z" style="fill:#2871ff;"/><g id="serviette violette"><path d="M850.403,3118.11l0,-1417.32l-850.394,0l0,1417.32l850.394,0Z" style="fill:#b05d95;"/><path d="M850.403,1984.25l0,-141.732l-850.394,0l0,141.732l850.394,0Z" style="fill:#fff;"/><path d="M850.403,2976.38l0,-141.732l-850.394,0l0,141.732l850.394,0Z" style="fill:#fff;"/></g><g id="serviette verte"><path d="M8503.94,3118.11l0,-1417.32l-850.394,0l0,1417.32l850.394,0Z" style="fill:#378839;"/><path d="M8503.94,1984.25l0,-141.732l-850.394,0l0,141.732l850.394,0Z" style="fill:#fff;"/><path d="M8503.94,2976.38l0,-141.732l-850.394,0l0,141.732l850.394,0Z" style="fill:#fff;"/></g><path d="M2330.08,566.929l0,-566.929l-62.362,0l0,566.929l62.362,0Z" style="fill:#ffb419;"/><path d="M6236.22,566.929l0,-566.929l-62.362,0l0,566.929l62.362,0Z" style="fill:#ffb419;"/><g id="zone chateau"><path d="M4251.97,3770.08c907.401,0 1644.09,-736.694 1644.1,-1644.1l56.693,0l-0.002,2.75c-1.487,937.428 -763.012,1698.04 -1700.79,1698.04l0,-56.693l-0.001,0.003Z" style="fill:#378839;"/><path d="M4251.97,3770.08l0,56.693c-937.824,-0.051 -1699.3,-760.641 -1700.79,-1698.04l-0.002,-2.75l56.693,0c0.001,907.371 736.645,1644.05 1644.09,1644.1l0.009,-0.003Z" style="fill:#ad5f9a;"/><path d="M5952.76,2157.16l0,-62.362l-3401.58,0l0,62.362l3401.58,0Z" style="fill:#ffb419;"/><path d="M4320,3826.77l0,-1669.61l-136.063,0l0,1669.61l136.063,0Z" style="fill:#ffb419;"/></g><g id="rochers"><path d="M8503.94,5669.29l-708.661,0c0,-391.121 317.54,-708.661 708.661,-708.661l0,708.661Z" style="fill:#cbcbcb;"/><path d="M8503.94,5669.29l-425.197,0c0,-234.672 190.524,-425.197 425.197,-425.197l0,425.197Z" style="fill:#aeaeae;"/><path d="M8082.6,5493.29c0,59.607 -48.393,108 -108,108c-59.607,0 -108,-48.393 -108,-108c0,-59.607 48.393,-108 108,-108c59.607,0 108,48.393 108,108Z" style="fill:#378839;stroke-width:2.5px;stroke:#000;"/><path d="M8423.2,5133.09c0,59.607 -48.393,108 -108,108c-59.607,0 -108,-48.393 -108,-108c0,-59.607 48.393,-108 108,-108c59.607,0 108,48.393 108,108Z" style="fill:#378839;stroke-width:2.5px;stroke:#000;"/><path d="M8423.2,5493.29c0,59.607 -48.393,108 -108,108c-59.607,0 -108,-48.393 -108,-108c0,-59.607 48.393,-108 108,-108c59.607,0 108,48.393 108,108Z" style="fill:#378839;stroke-width:2.5px;stroke:#000;"/></g><g id="rochers1"><path d="M0.003,5669.29l708.661,0c0,-391.121 -317.54,-708.661 -708.661,-708.661l0,708.661Z" style="fill:#cbcbcb;"/><path d="M0.003,5669.29l425.197,0c0,-234.672 -190.524,-425.197 -425.197,-425.197l0,425.197Z" style="fill:#aeaeae;"/><path d="M641.203,5496.29c0,59.607 -48.393,108 -108,108c-59.607,0 -108,-48.393 -108,-108c0,-59.607 48.393,-108 108,-108c59.607,0 108,48.393 108,108Z" style="fill:#b05d95;stroke-width:2.5px;stroke:#000;"/><path d="M300.603,5136.09c0,59.607 -48.393,108 -108,108c-59.607,0 -108,-48.393 -108,-108c0,-59.607 48.393,-108 108,-108c59.607,0 108,48.393 108,108Z" style="fill:#b05d95;stroke-width:2.5px;stroke:#000;"/><path d="M300.603,5496.29c0,59.607 -48.393,108 -108,108c-59.607,0 -108,-48.393 -108,-108c0,-59.607 48.393,-108 108,-108c59.607,0 108,48.393 108,108Z" style="fill:#b05d95;stroke-width:2.5px;stroke:#000;"/></g><path d="M2692.92,5669.29l0,-62.362l-62.362,0l0,62.362l62.362,0Z" style="fill:#010071;"/><path d="M5873.39,5669.29l0,-62.362l-62.362,0l0,62.362l62.362,0Z" style="fill:#010071;"/><g id="portes"><path d="M935.923,171.783l14.758,-24.202l-242.017,-147.581l-14.758,24.202l242.017,147.581Z" style="fill:#b90000;"/><path d="M1786.32,171.783l14.758,-24.202l-242.016,-147.581l-14.758,24.202l242.016,147.581Z" style="fill:#b90000;"/></g><g id="cubes"><g id="cubes1"><path d="M2648.4,164.409c7.474,0 13.542,-6.068 13.542,-13.542l0,-137.325c0,-7.474 -6.068,-13.542 -13.542,-13.542l-137.325,0c-7.474,0 -13.542,6.068 -13.542,13.542l0,137.325c0,7.474 6.068,13.542 13.542,13.542l137.325,0Z" style="fill:#ffb419;stroke-width:2.5px;stroke:#000;"/><path d="M2483.99,328.819c7.474,0 13.542,-6.068 13.542,-13.542l0,-137.326c0,-7.474 -6.068,-13.542 -13.542,-13.542l-137.326,0c-7.474,0 -13.542,6.068 -13.542,13.542l0,137.326c0,7.474 6.068,13.542 13.542,13.542l137.326,0Z" style="fill:#ffb419;stroke-width:2.5px;stroke:#000;"/><path d="M2483.99,164.409c7.474,0 13.542,-6.068 13.542,-13.542l0,-137.325c0,-7.474 -6.068,-13.542 -13.542,-13.542l-137.326,0c-7.474,0 -13.542,6.068 -13.542,13.542l0,137.325c0,7.474 6.068,13.542 13.542,13.542l137.326,0Z" style="fill:#ffb419;stroke-width:2.5px;stroke:#000;"/><path d="M2648.4,328.819c7.474,0 13.542,-6.068 13.542,-13.542l0,-137.326c0,-7.474 -6.068,-13.542 -13.542,-13.542l-137.325,0c-7.474,0 -13.542,6.068 -13.542,13.542l0,137.326c0,7.474 6.068,13.542 13.542,13.542l137.325,0Z" style="fill:#ffb419;stroke-width:2.5px;stroke:#000;"/></g><g id="cubes2"><path d="M6813.29,2551.18c7.474,0 13.542,-6.068 13.542,-13.542l0,-137.325c0,-7.474 -6.068,-13.542 -13.542,-13.542l-137.326,0c-7.474,0 -13.542,6.068 -13.542,13.542l0,137.325c0,7.474 6.068,13.542 13.542,13.542l137.326,0Z" style="fill:#ffb419;stroke-width:2.5px;stroke:#000;"/><path d="M6648.88,2715.59c7.474,0 13.542,-6.068 13.542,-13.542l0,-137.326c0,-7.474 -6.068,-13.542 -13.542,-13.542l-137.325,0c-7.474,0 -13.542,6.068 -13.542,13.542l0,137.326c0,7.474 6.068,13.542 13.542,13.542l137.325,0Z" style="fill:#ffb419;stroke-width:2.5px;stroke:#000;"/><path d="M6648.88,2551.18c7.474,0 13.542,-6.068 13.542,-13.542l0,-137.325c0,-7.474 -6.068,-13.542 -13.542,-13.542l-137.325,0c-7.474,0 -13.542,6.068 -13.542,13.542l0,137.325c0,7.474 6.068,13.542 13.542,13.542l137.325,0Z" style="fill:#ffb419;stroke-width:2.5px;stroke:#000;"/><path d="M6813.29,2715.59c7.474,0 13.542,-6.068 13.542,-13.542l0,-137.326c0,-7.474 -6.068,-13.542 -13.542,-13.542l-137.326,0c-7.474,0 -13.542,6.068 -13.542,13.542l0,137.326c0,7.474 6.068,13.542 13.542,13.542l137.326,0Z" style="fill:#ffb419;stroke-width:2.5px;stroke:#000;"/></g><g id="cubes3"><path d="M1994.39,2551.18c7.474,0 13.542,-6.068 13.542,-13.542l0,-137.325c0,-7.474 -6.068,-13.542 -13.542,-13.542l-137.325,0c-7.474,0 -13.542,6.068 -13.542,13.542l0,137.325c0,7.474 6.068,13.542 13.542,13.542l137.325,0Z" style="fill:#ffb419;stroke-width:2.5px;stroke:#000;"/><path d="M1829.98,2715.59c7.474,0 13.542,-6.068 13.542,-13.542l0,-137.326c0,-7.474 -6.068,-13.542 -13.542,-13.542l-137.326,0c-7.474,0 -13.542,6.068 -13.542,13.542l0,137.326c0,7.474 6.068,13.542 13.542,13.542l137.326,0Z" style="fill:#ffb419;stroke-width:2.5px;stroke:#000;"/><path d="M1829.98,2551.18c7.474,0 13.542,-6.068 13.542,-13.542l0,-137.325c0,-7.474 -6.068,-13.542 -13.542,-13.542l-137.326,0c-7.474,0 -13.542,6.068 -13.542,13.542l0,137.325c0,7.474 6.068,13.542 13.542,13.542l137.326,0Z" style="fill:#ffb419;stroke-width:2.5px;stroke:#000;"/><path d="M1994.39,2715.59c7.474,0 13.542,-6.068 13.542,-13.542l0,-137.326c0,-7.474 -6.068,-13.542 -13.542,-13.542l-137.325,0c-7.474,0 -13.542,6.068 -13.542,13.542l0,137.326c0,7.474 6.068,13.542 13.542,13.542l137.325,0Z" style="fill:#ffb419;stroke-width:2.5px;stroke:#000;"/></g><g id="cubes4"><path d="M6158.4,164.409c7.474,0 13.542,-6.068 13.542,-13.542l0,-137.325c0,-7.474 -6.068,-13.542 -13.542,-13.542l-137.325,0c-7.474,0 -13.542,6.068 -13.542,13.542l0,137.325c0,7.474 6.068,13.542 13.542,13.542l137.325,0Z" style="fill:#ffb419;stroke-width:2.5px;stroke:#000;"/><path d="M5993.99,328.819c7.474,0 13.542,-6.068 13.542,-13.542l0,-137.326c0,-7.474 -6.068,-13.542 -13.542,-13.542l-137.326,0c-7.474,0 -13.542,6.068 -13.542,13.542l0,137.326c0,7.474 6.068,13.542 13.542,13.542l137.326,0Z" style="fill:#ffb419;stroke-width:2.5px;stroke:#000;"/><path d="M5993.99,164.409c7.474,0 13.542,-6.068 13.542,-13.542l0,-137.325c0,-7.474 -6.068,-13.542 -13.542,-13.542l-137.326,0c-7.474,0 -13.542,6.068 -13.542,13.542l0,137.325c0,7.474 6.068,13.542 13.542,13.542l137.326,0Z" style="fill:#ffb419;stroke-width:2.5px;stroke:#000;"/><path d="M6158.4,328.819c7.474,0 13.542,-6.068 13.542,-13.542l0,-137.326c0,-7.474 -6.068,-13.542 -13.542,-13.542l-137.325,0c-7.474,0 -13.542,6.068 -13.542,13.542l0,137.326c0,7.474 6.068,13.542 13.542,13.542l137.325,0Z" style="fill:#ffb419;stroke-width:2.5px;stroke:#000;"/></g><g id="cubes5"><path d="M4334.18,417c0,45.37 -36.835,82.205 -82.205,82.205c-45.37,0 -82.205,-36.835 -82.205,-82.205c0,-45.37 36.835,-82.205 82.205,-82.205c45.37,0 82.205,36.835 82.205,82.205Z" style="fill:#ffb419;stroke-width:2.5px;stroke:#000;"/><path d="M4334.18,417c0,45.37 -36.835,82.205 -82.205,82.205c-45.37,0 -82.205,-36.835 -82.205,-82.205c0,-45.37 36.835,-82.205 82.205,-82.205c45.37,0 82.205,36.835 82.205,82.205Z" style="fill:#ffb419;stroke-width:2.5px;stroke:#000;"/><path d="M4820.34,164.409c7.474,0 13.542,-6.068 13.542,-13.542l0,-137.325c0,-7.474 -6.068,-13.542 -13.542,-13.542l-137.325,0c-7.475,0 -13.543,6.068 -13.543,13.542l0,137.325c0,7.474 6.068,13.542 13.543,13.542l137.325,0Z" style="fill:#ffb419;stroke-width:2.5px;stroke:#000;"/><path d="M3988.34,164.409c7.474,0 13.542,-6.068 13.542,-13.542l0,-137.325c0,-7.474 -6.068,-13.542 -13.542,-13.542l-137.325,0c-7.475,0 -13.543,6.068 -13.543,13.542l0,137.325c0,7.474 6.068,13.542 13.543,13.542l137.325,0Z" style="fill:#ffb419;stroke-width:2.5px;stroke:#000;"/><path d="M4486.93,164.409c7.475,0 13.542,-6.068 13.542,-13.542l0,-137.325c0,-7.474 -6.067,-13.542 -13.542,-13.542l-137.325,0c-7.474,0 -13.542,6.068 -13.542,13.542l0,137.325c0,7.474 6.068,13.542 13.542,13.542l137.325,0Z" style="fill:#ffb419;stroke-width:2.5px;stroke:#000;"/><path d="M4486.93,331.819c7.475,0 13.542,-6.068 13.542,-13.542l0,-137.326c0,-7.474 -6.067,-13.542 -13.542,-13.542l-137.325,0c-7.474,0 -13.542,6.068 -13.542,13.542l0,137.326c0,7.474 6.068,13.542 13.542,13.542l137.325,0Z" style="fill:#ffb419;stroke-width:2.5px;stroke:#000;"/><path d="M4320.52,164.409c7.474,0 13.542,-6.068 13.542,-13.542l0,-137.325c0,-7.474 -6.068,-13.542 -13.542,-13.542l-137.325,0c-7.474,0 -13.542,6.068 -13.542,13.542l0,137.325c0,7.474 6.068,13.542 13.542,13.542l137.325,0Z" style="fill:#ffb419;stroke-width:2.5px;stroke:#000;"/><path d="M4320.52,331.819c7.474,0 13.542,-6.068 13.542,-13.542l0,-137.326c0,-7.474 -6.068,-13.542 -13.542,-13.542l-137.325,0c-7.474,0 -13.542,6.068 -13.542,13.542l0,137.326c0,7.474 6.068,13.542 13.542,13.542l137.325,0Z" style="fill:#ffb419;stroke-width:2.5px;stroke:#000;"/><path d="M3654.93,164.409c7.475,0 13.542,-6.068 13.542,-13.542l0,-137.325c0,-7.474 -6.067,-13.542 -13.542,-13.542l-137.325,0c-7.474,0 -13.542,6.068 -13.542,13.542l0,137.325c0,7.474 6.068,13.542 13.542,13.542l137.325,0Z" style="fill:#ffb419;stroke-width:2.5px;stroke:#000;"/><path d="M4653.93,164.409c7.475,0 13.542,-6.068 13.542,-13.542l0,-137.325c0,-7.474 -6.067,-13.542 -13.542,-13.542l-137.325,0c-7.474,0 -13.542,6.068 -13.542,13.542l0,137.325c0,7.474 6.068,13.542 13.542,13.542l137.325,0Z" style="fill:#ffb419;stroke-width:2.5px;stroke:#000;"/><path d="M3821.93,164.409c7.475,0 13.542,-6.068 13.542,-13.542l0,-137.325c0,-7.474 -6.067,-13.542 -13.542,-13.542l-137.325,0c-7.474,0 -13.542,6.068 -13.542,13.542l0,137.325c0,7.474 6.068,13.542 13.542,13.542l137.325,0Z" style="fill:#ffb419;stroke-width:2.5px;stroke:#000;"/><path d="M4986.34,164.409c7.474,0 13.542,-6.068 13.542,-13.542l0,-137.325c0,-7.474 -6.068,-13.542 -13.542,-13.542l-137.325,0c-7.475,0 -13.543,6.068 -13.543,13.542l0,137.325c0,7.474 6.068,13.542 13.543,13.542l137.325,0Z" style="fill:#ffb419;stroke-width:2.5px;stroke:#000;"/><path d="M4154.34,164.409c7.474,0 13.542,-6.068 13.542,-13.542l0,-137.325c0,-7.474 -6.068,-13.542 -13.542,-13.542l-137.325,0c-7.475,0 -13.543,6.068 -13.543,13.542l0,137.325c0,7.474 6.068,13.542 13.543,13.542l137.325,0Z" style="fill:#ffb419;stroke-width:2.5px;stroke:#000;"/><path d="M4154.34,331.819c7.474,0 13.542,-6.068 13.542,-13.542l0,-137.326c0,-7.474 -6.068,-13.542 -13.542,-13.542l-137.325,0c-7.475,0 -13.543,6.068 -13.543,13.542l0,137.326c0,7.474 6.068,13.542 13.543,13.542l137.325,0Z" style="fill:#ffb419;stroke-width:2.5px;stroke:#000;"/></g></g><g id="portes1"><path d="M7553.27,171.783l-14.758,-24.202l242.016,-147.581l14.759,24.202l-242.017,147.581Z" style="fill:#b90000;"/><path d="M6702.87,171.783l-14.759,-24.202l242.017,-147.581l14.758,24.202l-242.016,147.581Z" style="fill:#b90000;"/></g><g><path d="M674.933,3543.31c0,59.607 -48.393,108 -108,108c-59.607,0 -108,-48.393 -108,-108c0,-59.607 48.393,-108 108,-108c59.607,0 108,48.393 108,108Z" style="fill:#fff;stroke-width:2.5px;stroke:#000;"/><path d="M2659.18,4110.24c0,59.607 -48.393,108 -108,108c-59.607,0 -108,-48.393 -108,-108c0,-59.607 48.393,-108 108,-108c59.607,0 108,48.393 108,108Z" style="fill:#b05d95;stroke-width:2.5px;stroke:#000;"/><path d="M4359.97,4393.7c0,59.607 -48.393,108 -108,108c-59.607,0 -108,-48.393 -108,-108c0,-59.607 48.393,-108 108,-108c59.607,0 108,48.393 108,108Z" style="fill:#fff;stroke-width:2.5px;stroke:#000;"/><path d="M4359.97,5244.09c0,59.607 -48.393,108 -108,108c-59.607,0 -108,-48.393 -108,-108c0,-59.607 48.393,-108 108,-108c59.607,0 108,48.393 108,108Z" style="fill:#fff;stroke-width:2.5px;stroke:#000;"/><path d="M3509.58,4677.16c0,59.607 -48.393,108 -108,108c-59.607,0 -108,-48.393 -108,-108c0,-59.607 48.393,-108 108,-108c59.607,0 108,48.393 108,108Z" style="fill:#378839;stroke-width:2.5px;stroke:#000;"/><path d="M5210.36,4677.16c0,59.607 -48.393,108 -108,108c-59.607,0 -108,-48.393 -108,-108c0,-59.607 48.393,-108 108,-108c59.607,0 108,48.393 108,108Z" style="fill:#b05d95;stroke-width:2.5px;stroke:#000;"/><path d="M6060.76,4110.24c0,59.607 -48.393,108 -108,108c-59.607,0 -108,-48.393 -108,-108c0,-59.607 48.393,-108 108,-108c59.607,0 108,48.393 108,108Z" style="fill:#378839;stroke-width:2.5px;stroke:#000;"/><path d="M674.933,4393.7c0,59.607 -48.393,108 -108,108c-59.607,0 -108,-48.393 -108,-108c0,-59.607 48.393,-108 108,-108c59.607,0 108,48.393 108,108Z" style="fill:#fff;stroke-width:2.5px;stroke:#000;"/><path d="M8045.01,3543.31c0,59.607 -48.393,108 -108,108c-59.607,0 -108,-48.393 -108,-108c0,-59.607 48.393,-108 108,-108c59.607,0 108,48.393 108,108Z" style="fill:#fff;stroke-width:2.5px;stroke:#000;"/><path d="M8042.01,4393.7c0,59.607 -48.393,108 -108,108c-59.607,0 -108,-48.393 -108,-108c0,-59.607 48.393,-108 108,-108c59.607,0 108,48.393 108,108Z" style="fill:#fff;stroke-width:2.5px;stroke:#000;"/></g></svg>