<?xml version="1.0" standalone="no"?><!DOCTYPE svg PUBLIC "-//W3C//DTD SVG 1.1//EN" "http://www.w3.org/Graphics/SVG/1.1/DTD/svg11.dtd"><svg width="100%" height="100%" viewBox="0 0 5670 8504" version="1.1" xmlns="http://www.w3.org/2000/svg" xmlns:xlink="http://www.w3.org/1999/xlink" xml:space="preserve" style="fill-rule:evenodd;clip-rule:evenodd;stroke-linecap:round;stroke-linejoin:round;stroke-miterlimit:1.41421;"><rect id="sable" x="0" y="0" width="5669.29" height="8503.94" style="fill:#fffb0a;"/><path id="mer" d="M3512.87,2185.81c-71.965,-87.72 -111.296,-197.674 -111.296,-311.137c-0.002,-503.415 -0.002,-1874.67 -0.002,-1874.67l2267.72,0l0,8503.94l-2267.72,0c0,0 0,-1371.26 0,-1874.67c0,-113.463 39.331,-223.417 111.296,-311.138c461.789,-562.574 739.098,-1282.24 739.098,-2066.16c0,-783.921 -277.309,-1503.58 -739.096,-2066.16Z" style="fill:#2871ff;"/><g id="serviette violette"><rect x="1700.79" y="7653.54" width="1417.32" height="850.394" style="fill:#b05d95;"/><rect x="1842.52" y="7653.54" width="141.732" height="850.394" style="fill:#fff;"/><rect x="2834.65" y="7653.54" width="141.732" height="850.394" style="fill:#fff;"/></g><g id="serviette verte"><rect x="1700.79" y="0" width="1417.32" height="850.394" style="fill:#378839;"/><rect x="1842.52" y="0" width="141.732" height="850.394" style="fill:#fff;"/><rect x="2834.65" y="0" width="141.732" height="850.394" style="fill:#fff;"/></g><rect x="0" y="6173.86" width="566.929" height="62.362" style="fill:#ffb419;"/><rect x="0" y="2267.72" width="566.929" height="62.362" style="fill:#ffb419;"/><g id="zone chateau"><path d="M3770.08,4251.97c0,-907.401 -736.694,-1644.09 -1644.1,-1644.1l0,-56.693l2.75,0.002c937.428,1.487 1698.04,763.012 1698.04,1700.79l-56.693,0Z" style="fill:#378839;"/><path d="M3770.08,4251.97l56.693,0c-0.051,937.824 -760.641,1699.3 -1698.04,1700.79l-2.75,0.002l0,-56.693c907.371,-0.001 1644.05,-736.645 1644.1,-1644.09Z" style="fill:#ad5f9a;"/><rect x="2094.8" y="2551.18" width="62.362" height="3401.58" style="fill:#ffb419;"/><rect x="2157.16" y="4183.94" width="1669.61" height="136.063" style="fill:#ffb419;"/></g><g id="rochers"><path d="M5669.29,0l0,708.661c-391.121,0 -708.661,-317.54 -708.661,-708.661l708.661,0Z" style="fill:#cbcbcb;"/><path d="M5669.29,0l0,425.197c-234.672,0 -425.197,-190.524 -425.197,-425.197l425.197,0Z" style="fill:#aeaeae;"/><circle cx="5493.29" cy="529.339" r="108" style="fill:#378839;stroke-width:2.5px;stroke:#000;"/><circle cx="5133.09" cy="188.74" r="108" style="fill:#378839;stroke-width:2.5px;stroke:#000;"/><circle cx="5493.29" cy="188.74" r="108" style="fill:#378839;stroke-width:2.5px;stroke:#000;"/></g><g id="rochers1"><path d="M5669.29,8503.94l0,-708.661c-391.121,0 -708.661,317.54 -708.661,708.661l708.661,0Z" style="fill:#cbcbcb;"/><path d="M5669.29,8503.94l0,-425.197c-234.672,0 -425.197,190.524 -425.197,425.197l425.197,0Z" style="fill:#aeaeae;"/><circle cx="5496.29" cy="7970.74" r="108" style="fill:#b05d95;stroke-width:2.5px;stroke:#000;"/><circle cx="5136.09" cy="8311.34" r="108" style="fill:#b05d95;stroke-width:2.5px;stroke:#000;"/><circle cx="5496.29" cy="8311.34" r="108" style="fill:#b05d95;stroke-width:2.5px;stroke:#000;"/></g><rect x="5606.93" y="5811.02" width="62.362" height="62.362" style="fill:#010071;"/><rect x="5606.93" y="2630.55" width="62.362" height="62.362" style="fill:#010071;"/><g id="portes"><path d="M171.783,7568.02l-24.202,-14.758l-147.581,242.017l24.202,14.758l147.581,-242.017Z" style="fill:#b90000;"/><path d="M171.783,6717.62l-24.202,-14.758l-147.581,242.016l24.202,14.758l147.581,-242.016Z" style="fill:#b90000;"/></g><g id="cubes"><g id="cubes1"><path d="M164.409,5855.54c0,-7.474 -6.068,-13.542 -13.542,-13.542l-137.325,0c-7.474,0 -13.542,6.068 -13.542,13.542l0,137.325c0,7.474 6.068,13.542 13.542,13.542l137.325,0c7.474,0 13.542,-6.068 13.542,-13.542l0,-137.325Z" style="fill:#ffb419;stroke-width:2.5px;stroke:#000;"/><path d="M328.819,6019.95c0,-7.474 -6.068,-13.542 -13.542,-13.542l-137.326,0c-7.474,0 -13.542,6.068 -13.542,13.542l0,137.326c0,7.474 6.068,13.542 13.542,13.542l137.326,0c7.474,0 13.542,-6.068 13.542,-13.542l0,-137.326Z" style="fill:#ffb419;stroke-width:2.5px;stroke:#000;"/><path d="M164.409,6019.95c0,-7.474 -6.068,-13.542 -13.542,-13.542l-137.325,0c-7.474,0 -13.542,6.068 -13.542,13.542l0,137.326c0,7.474 6.068,13.542 13.542,13.542l137.325,0c7.474,0 13.542,-6.068 13.542,-13.542l0,-137.326Z" style="fill:#ffb419;stroke-width:2.5px;stroke:#000;"/><path d="M328.819,5855.54c0,-7.474 -6.068,-13.542 -13.542,-13.542l-137.326,0c-7.474,0 -13.542,6.068 -13.542,13.542l0,137.325c0,7.474 6.068,13.542 13.542,13.542l137.326,0c7.474,0 13.542,-6.068 13.542,-13.542l0,-137.325Z" style="fill:#ffb419;stroke-width:2.5px;stroke:#000;"/></g><g id="cubes2"><path d="M2551.18,1690.65c0,-7.474 -6.068,-13.542 -13.542,-13.542l-137.325,0c-7.474,0 -13.542,6.068 -13.542,13.542l0,137.326c0,7.474 6.068,13.542 13.542,13.542l137.325,0c7.474,0 13.542,-6.068 13.542,-13.542l0,-137.326Z" style="fill:#ffb419;stroke-width:2.5px;stroke:#000;"/><path d="M2715.59,1855.06c0,-7.474 -6.068,-13.542 -13.542,-13.542l-137.326,0c-7.474,0 -13.542,6.068 -13.542,13.542l0,137.325c0,7.474 6.068,13.542 13.542,13.542l137.326,0c7.474,0 13.542,-6.068 13.542,-13.542l0,-137.325Z" style="fill:#ffb419;stroke-width:2.5px;stroke:#000;"/><path d="M2551.18,1855.06c0,-7.474 -6.068,-13.542 -13.542,-13.542l-137.325,0c-7.474,0 -13.542,6.068 -13.542,13.542l0,137.325c0,7.474 6.068,13.542 13.542,13.542l137.325,0c7.474,0 13.542,-6.068 13.542,-13.542l0,-137.325Z" style="fill:#ffb419;stroke-width:2.5px;stroke:#000;"/><path d="M2715.59,1690.65c0,-7.474 -6.068,-13.542 -13.542,-13.542l-137.326,0c-7.474,0 -13.542,6.068 -13.542,13.542l0,137.326c0,7.474 6.068,13.542 13.542,13.542l137.326,0c7.474,0 13.542,-6.068 13.542,-13.542l0,-137.326Z" style="fill:#ffb419;stroke-width:2.5px;stroke:#000;"/></g><g id="cubes3"><path d="M2551.18,6509.55c0,-7.474 -6.068,-13.542 -13.542,-13.542l-137.325,0c-7.474,0 -13.542,6.068 -13.542,13.542l0,137.325c0,7.474 6.068,13.542 13.542,13.542l137.325,0c7.474,0 13.542,-6.068 13.542,-13.542l0,-137.325Z" style="fill:#ffb419;stroke-width:2.5px;stroke:#000;"/><path d="M2715.59,6673.96c0,-7.474 -6.068,-13.542 -13.542,-13.542l-137.326,0c-7.474,0 -13.542,6.068 -13.542,13.542l0,137.326c0,7.474 6.068,13.542 13.542,13.542l137.326,0c7.474,0 13.542,-6.068 13.542,-13.542l0,-137.326Z" style="fill:#ffb419;stroke-width:2.5px;stroke:#000;"/><path d="M2551.18,6673.96c0,-7.474 -6.068,-13.542 -13.542,-13.542l-137.325,0c-7.474,0 -13.542,6.068 -13.542,13.542l0,137.326c0,7.474 6.068,13.542 13.542,13.542l137.325,0c7.474,0 13.542,-6.068 13.542,-13.542l0,-137.326Z" style="fill:#ffb419;stroke-width:2.5px;stroke:#000;"/><path d="M2715.59,6509.55c0,-7.474 -6.068,-13.542 -13.542,-13.542l-137.326,0c-7.474,0 -13.542,6.068 -13.542,13.542l0,137.325c0,7.474 6.068,13.542 13.542,13.542l137.326,0c7.474,0 13.542,-6.068 13.542,-13.542l0,-137.325Z" style="fill:#ffb419;stroke-width:2.5px;stroke:#000;"/></g><g id="cubes4"><path d="M164.409,2345.54c0,-7.474 -6.068,-13.542 -13.542,-13.542l-137.325,0c-7.474,0 -13.542,6.068 -13.542,13.542l0,137.325c0,7.474 6.068,13.542 13.542,13.542l137.325,0c7.474,0 13.542,-6.068 13.542,-13.542l0,-137.325Z" style="fill:#ffb419;stroke-width:2.5px;stroke:#000;"/><path d="M328.819,2509.95c0,-7.474 -6.068,-13.542 -13.542,-13.542l-137.326,0c-7.474,0 -13.542,6.068 -13.542,13.542l0,137.326c0,7.474 6.068,13.542 13.542,13.542l137.326,0c7.474,0 13.542,-6.068 13.542,-13.542l0,-137.326Z" style="fill:#ffb419;stroke-width:2.5px;stroke:#000;"/><path d="M164.409,2509.95c0,-7.474 -6.068,-13.542 -13.542,-13.542l-137.325,0c-7.474,0 -13.542,6.068 -13.542,13.542l0,137.326c0,7.474 6.068,13.542 13.542,13.542l137.325,0c7.474,0 13.542,-6.068 13.542,-13.542l0,-137.326Z" style="fill:#ffb419;stroke-width:2.5px;stroke:#000;"/><path d="M328.819,2345.54c0,-7.474 -6.068,-13.542 -13.542,-13.542l-137.326,0c-7.474,0 -13.542,6.068 -13.542,13.542l0,137.325c0,7.474 6.068,13.542 13.542,13.542l137.326,0c7.474,0 13.542,-6.068 13.542,-13.542l0,-137.325Z" style="fill:#ffb419;stroke-width:2.5px;stroke:#000;"/></g><g id="cubes5"><circle cx="417" cy="4251.97" r="82.205" style="fill:#ffb419;stroke-width:2.5px;stroke:#000;"/><circle cx="417" cy="4251.97" r="82.205" style="fill:#ffb419;stroke-width:2.5px;stroke:#000;"/><path d="M164.409,3683.6c0,-7.474 -6.068,-13.542 -13.542,-13.542l-137.325,0c-7.474,0 -13.542,6.068 -13.542,13.542l0,137.325c0,7.475 6.068,13.543 13.542,13.543l137.325,0c7.474,0 13.542,-6.068 13.542,-13.543l0,-137.325Z" style="fill:#ffb419;stroke-width:2.5px;stroke:#000;"/><path d="M164.409,4515.6c0,-7.474 -6.068,-13.542 -13.542,-13.542l-137.325,0c-7.474,0 -13.542,6.068 -13.542,13.542l0,137.325c0,7.475 6.068,13.543 13.542,13.543l137.325,0c7.474,0 13.542,-6.068 13.542,-13.543l0,-137.325Z" style="fill:#ffb419;stroke-width:2.5px;stroke:#000;"/><path d="M164.409,4017.01c0,-7.475 -6.068,-13.542 -13.542,-13.542l-137.325,0c-7.474,0 -13.542,6.067 -13.542,13.542l0,137.325c0,7.474 6.068,13.542 13.542,13.542l137.325,0c7.474,0 13.542,-6.068 13.542,-13.542l0,-137.325Z" style="fill:#ffb419;stroke-width:2.5px;stroke:#000;"/><path d="M331.819,4017.01c0,-7.475 -6.068,-13.542 -13.542,-13.542l-137.326,0c-7.474,0 -13.542,6.067 -13.542,13.542l0,137.325c0,7.474 6.068,13.542 13.542,13.542l137.326,0c7.474,0 13.542,-6.068 13.542,-13.542l0,-137.325Z" style="fill:#ffb419;stroke-width:2.5px;stroke:#000;"/><path d="M164.409,4183.42c0,-7.474 -6.068,-13.542 -13.542,-13.542l-137.325,0c-7.474,0 -13.542,6.068 -13.542,13.542l0,137.325c0,7.474 6.068,13.542 13.542,13.542l137.325,0c7.474,0 13.542,-6.068 13.542,-13.542l0,-137.325Z" style="fill:#ffb419;stroke-width:2.5px;stroke:#000;"/><path d="M331.819,4183.42c0,-7.474 -6.068,-13.542 -13.542,-13.542l-137.326,0c-7.474,0 -13.542,6.068 -13.542,13.542l0,137.325c0,7.474 6.068,13.542 13.542,13.542l137.326,0c7.474,0 13.542,-6.068 13.542,-13.542l0,-137.325Z" style="fill:#ffb419;stroke-width:2.5px;stroke:#000;"/><path d="M164.409,4849.01c0,-7.475 -6.068,-13.542 -13.542,-13.542l-137.325,0c-7.474,0 -13.542,6.067 -13.542,13.542l0,137.325c0,7.474 6.068,13.542 13.542,13.542l137.325,0c7.474,0 13.542,-6.068 13.542,-13.542l0,-137.325Z" style="fill:#ffb419;stroke-width:2.5px;stroke:#000;"/><path d="M164.409,3850.01c0,-7.475 -6.068,-13.542 -13.542,-13.542l-137.325,0c-7.474,0 -13.542,6.067 -13.542,13.542l0,137.325c0,7.474 6.068,13.542 13.542,13.542l137.325,0c7.474,0 13.542,-6.068 13.542,-13.542l0,-137.325Z" style="fill:#ffb419;stroke-width:2.5px;stroke:#000;"/><path d="M164.409,4682.01c0,-7.475 -6.068,-13.542 -13.542,-13.542l-137.325,0c-7.474,0 -13.542,6.067 -13.542,13.542l0,137.325c0,7.474 6.068,13.542 13.542,13.542l137.325,0c7.474,0 13.542,-6.068 13.542,-13.542l0,-137.325Z" style="fill:#ffb419;stroke-width:2.5px;stroke:#000;"/><path d="M164.409,3517.6c0,-7.474 -6.068,-13.542 -13.542,-13.542l-137.325,0c-7.474,0 -13.542,6.068 -13.542,13.542l0,137.325c0,7.475 6.068,13.543 13.542,13.543l137.325,0c7.474,0 13.542,-6.068 13.542,-13.543l0,-137.325Z" style="fill:#ffb419;stroke-width:2.5px;stroke:#000;"/><path d="M164.409,4349.6c0,-7.474 -6.068,-13.542 -13.542,-13.542l-137.325,0c-7.474,0 -13.542,6.068 -13.542,13.542l0,137.325c0,7.475 6.068,13.543 13.542,13.543l137.325,0c7.474,0 13.542,-6.068 13.542,-13.543l0,-137.325Z" style="fill:#ffb419;stroke-width:2.5px;stroke:#000;"/><path d="M331.819,4349.6c0,-7.474 -6.068,-13.542 -13.542,-13.542l-137.326,0c-7.474,0 -13.542,6.068 -13.542,13.542l0,137.325c0,7.475 6.068,13.543 13.542,13.543l137.326,0c7.474,0 13.542,-6.068 13.542,-13.543l0,-137.325Z" style="fill:#ffb419;stroke-width:2.5px;stroke:#000;"/></g></g><g id="portes1"><path d="M171.783,950.678l-24.202,14.758l-147.581,-242.016l24.202,-14.759l147.581,242.017Z" style="fill:#b90000;"/><path d="M171.783,1801.07l-24.202,14.759l-147.581,-242.017l24.202,-14.758l147.581,242.016Z" style="fill:#b90000;"/></g><g><circle cx="3543.31" cy="7937.01" r="108" style="fill:#fff;stroke-width:2.5px;stroke:#000;"/><circle cx="4110.24" cy="5952.76" r="108" style="fill:#b05d95;stroke-width:2.5px;stroke:#000;"/><circle cx="4393.7" cy="4251.97" r="108" style="fill:#fff;stroke-width:2.5px;stroke:#000;"/><circle cx="5244.09" cy="4251.97" r="108" style="fill:#fff;stroke-width:2.5px;stroke:#000;"/><circle cx="4677.16" cy="5102.36" r="108" style="fill:#378839;stroke-width:2.5px;stroke:#000;"/><circle cx="4677.16" cy="3401.58" r="108" style="fill:#b05d95;stroke-width:2.5px;stroke:#000;"/><circle cx="4110.24" cy="2551.18" r="108" style="fill:#378839;stroke-width:2.5px;stroke:#000;"/><circle cx="4393.7" cy="7937.01" r="108" style="fill:#fff;stroke-width:2.5px;stroke:#000;"/><circle cx="3543.31" cy="566.929" r="108" style="fill:#fff;stroke-width:2.5px;stroke:#000;"/><circle cx="4393.7" cy="569.929" r="108" style="fill:#fff;stroke-width:2.5px;stroke:#000;"/></g></svg>